<svg xmlns="http://www.w3.org/2000/svg" style="display:none" aria-hidden="true">
  <symbol id="i-home" viewBox="0 0 24 24"><rect x="3" y="3" width="7" height="9" rx="1"/><rect x="14" y="3" width="7" height="5" rx="1"/><rect x="14" y="12" width="7" height="9" rx="1"/><rect x="3" y="16" width="7" height="5" rx="1"/></symbol>
  <symbol id="i-list" viewBox="0 0 24 24"><line x1="8" y1="6" x2="21" y2="6"/><line x1="8" y1="12" x2="21" y2="12"/><line x1="8" y1="18" x2="21" y2="18"/><line x1="3" y1="6" x2="3.01" y2="6"/><line x1="3" y1="12" x2="3.01" y2="12"/><line x1="3" y1="18" x2="3.01" y2="18"/></symbol>
  <symbol id="i-activity" viewBox="0 0 24 24"><polyline points="22 12 18 12 15 21 9 3 6 12 2 12"/></symbol>
  <symbol id="i-menu" viewBox="0 0 24 24"><line x1="4" y1="6" x2="20" y2="6"/><line x1="4" y1="12" x2="20" y2="12"/><line x1="4" y1="18" x2="20" y2="18"/></symbol>
  <symbol id="i-x" viewBox="0 0 24 24"><line x1="18" y1="6" x2="6" y2="18"/><line x1="6" y1="6" x2="18" y2="18"/></symbol>
  <symbol id="i-search" viewBox="0 0 24 24"><circle cx="11" cy="11" r="8"/><line x1="21" y1="21" x2="16.65" y2="16.65"/></symbol>
  <symbol id="i-play" viewBox="0 0 24 24"><polygon points="6 3 20 12 6 21 6 3"/></symbol>
  <symbol id="i-refresh" viewBox="0 0 24 24"><polyline points="23 4 23 10 17 10"/><polyline points="1 20 1 14 7 14"/><path d="M3.51 9a9 9 0 0 1 14.85-3.36L23 10M1 14l4.64 4.36A9 9 0 0 0 20.49 15"/></symbol>
  <symbol id="i-mail" viewBox="0 0 24 24"><rect x="2" y="4" width="20" height="16" rx="2"/><path d="m22 7-10 7L2 7"/></symbol>
  <symbol id="i-check" viewBox="0 0 24 24"><polyline points="20 6 9 17 4 12"/></symbol>
  <symbol id="i-clock" viewBox="0 0 24 24"><circle cx="12" cy="12" r="10"/><polyline points="12 6 12 12 16 14"/></symbol>
  <symbol id="i-alert" viewBox="0 0 24 24"><path d="M10.29 3.86 1.82 18a2 2 0 0 0 1.71 3h16.94a2 2 0 0 0 1.71-3L13.71 3.86a2 2 0 0 0-3.42 0z"/><line x1="12" y1="9" x2="12" y2="13"/><line x1="12" y1="17" x2="12.01" y2="17"/></symbol>
  <symbol id="i-info" viewBox="0 0 24 24"><circle cx="12" cy="12" r="10"/><line x1="12" y1="16" x2="12" y2="12"/><line x1="12" y1="8" x2="12.01" y2="8"/></symbol>
  <symbol id="i-external" viewBox="0 0 24 24"><path d="M18 13v6a2 2 0 0 1-2 2H5a2 2 0 0 1-2-2V8a2 2 0 0 1 2-2h6"/><polyline points="15 3 21 3 21 9"/><line x1="10" y1="14" x2="21" y2="3"/></symbol>
  <symbol id="i-down" viewBox="0 0 24 24"><polyline points="6 9 12 15 18 9"/></symbol>
  <symbol id="i-up" viewBox="0 0 24 24"><polyline points="18 15 12 9 6 15"/></symbol>
  <symbol id="i-download" viewBox="0 0 24 24"><path d="M21 15v4a2 2 0 0 1-2 2H5a2 2 0 0 1-2-2v-4"/><polyline points="7 10 12 15 17 10"/><line x1="12" y1="15" x2="12" y2="3"/></symbol>
  <symbol id="i-filter" viewBox="0 0 24 24"><polygon points="22 3 2 3 10 12.46 10 19 14 21 14 12.46 22 3"/></symbol>
  <symbol id="i-ban" viewBox="0 0 24 24"><circle cx="12" cy="12" r="10"/><line x1="4.93" y1="4.93" x2="19.07" y2="19.07"/></symbol>
  <symbol id="i-phone" viewBox="0 0 24 24"><path d="M22 16.92v3a2 2 0 0 1-2.18 2 19.79 19.79 0 0 1-8.63-3.07 19.5 19.5 0 0 1-6-6 19.79 19.79 0 0 1-3.07-8.67A2 2 0 0 1 4.11 2h3a2 2 0 0 1 2 1.72c.13.96.36 1.9.7 2.81a2 2 0 0 1-.45 2.11L8.09 9.91a16 16 0 0 0 6 6l1.27-1.27a2 2 0 0 1 2.11-.45c.91.34 1.85.57 2.81.7A2 2 0 0 1 22 16.92z"/></symbol>
  <symbol id="i-file" viewBox="0 0 24 24"><path d="M14 2H6a2 2 0 0 0-2 2v16a2 2 0 0 0 2 2h12a2 2 0 0 0 2-2V8z"/><polyline points="14 2 14 8 20 8"/><line x1="16" y1="13" x2="8" y2="13"/><line x1="16" y1="17" x2="8" y2="17"/></symbol>
  <symbol id="i-logout" viewBox="0 0 24 24"><path d="M9 21H5a2 2 0 0 1-2-2V5a2 2 0 0 1 2-2h4"/><polyline points="16 17 21 12 16 7"/><line x1="21" y1="12" x2="9" y2="12"/></symbol>
  <symbol id="i-columns" viewBox="0 0 24 24"><rect x="3" y="3" width="18" height="18" rx="2"/><line x1="9" y1="3" x2="9" y2="21"/><line x1="15" y1="3" x2="15" y2="21"/></symbol>
</svg>
